<svg xmlns="http://www.w3.org/2000/svg" width="1024" height="1024" viewBox="0 0 1024 1024">
<defs><linearGradient id="base" x1="0" y1="0" x2="1" y2="1"><stop offset="0" stop-color="#F05CA6"/><stop offset="0.52" stop-color="#FF8A6B"/><stop offset="1" stop-color="#6E8BE0"/></linearGradient><radialGradient id="glow" cx="0.30" cy="0.24" r="0.72"><stop offset="0" stop-color="#FFF4EA" stop-opacity="0.5"/><stop offset="1" stop-color="#FFF4EA" stop-opacity="0"/></radialGradient></defs><rect width="1024" height="1024" fill="url(#base)"/><rect width="1024" height="1024" fill="url(#glow)"/>
<g transform="translate(211.34,479.45) scale(0.20429,-0.20429)"><path d="M1371 337Q1371 188 1242.5 94.0Q1114 0 857 0H164Q133 0 118.5 12.5Q104 25 104 46Q104 84 146 97L203 110Q228 117 240.5 131.0Q253 145 253 167V1233Q253 1255 240.5 1269.0Q228 1283 203 1290L146 1303Q104 1316 104 1354Q104 1376 118.5 1388.0Q133 1400 164 1400H704Q890 1400 1021.5 1349.0Q1153 1298 1222.0 1207.5Q1291 1117 1291 996Q1291 895 1234.5 816.0Q1178 737 1067.0 691.5Q956 646 793 646L849 677Q1008 677 1125.0 633.5Q1242 590 1306.5 513.5Q1371 437 1371 337ZM743 609H476V690H718Q807 690 869.0 723.5Q931 757 963.0 822.0Q995 887 995 980Q995 1079 955.5 1152.5Q916 1226 840.0 1267.0Q764 1308 654 1308H563V189Q563 140 593.5 116.0Q624 92 683 92H789Q878 92 938.5 123.0Q999 154 1030.0 211.5Q1061 269 1061 345Q1061 465 979.5 537.0Q898 609 743 609Z" fill="#1F1B1A"/></g>
<g transform="translate(583.66,479.45) scale(0.20429,-0.20429)"><path d="M126 849 80 863Q56 871 46.0 881.5Q36 892 36 906Q36 926 49.5 936.5Q63 947 86 947H147Q171 947 187.0 956.0Q203 965 220 988L329 1141Q350 1167 369.0 1179.0Q388 1191 407 1191Q428 1191 440.0 1178.0Q452 1165 452 1140V285Q452 215 479.5 178.0Q507 141 556 141Q593 141 613.5 155.5Q634 170 646.0 189.0Q658 208 669.5 222.5Q681 237 699 238Q714 238 722.5 228.0Q731 218 731 195Q730 138 693.5 89.0Q657 40 592.0 9.5Q527 -21 444 -21Q316 -21 243.5 43.5Q171 108 171 238V790Q171 816 160.5 828.5Q150 841 126 849ZM341 848V947H672Q695 947 708.5 937.5Q722 928 722 910Q722 884 696.0 866.0Q670 848 612 848Z" fill="#1F1B1A"/></g>
<g transform="translate(283.66,809.45) scale(0.20429,-0.20429)"><path d="M126 849 80 863Q56 871 46.0 881.5Q36 892 36 906Q36 926 49.5 936.5Q63 947 86 947H147Q171 947 187.0 956.0Q203 965 220 988L329 1141Q350 1167 369.0 1179.0Q388 1191 407 1191Q428 1191 440.0 1178.0Q452 1165 452 1140V285Q452 215 479.5 178.0Q507 141 556 141Q593 141 613.5 155.5Q634 170 646.0 189.0Q658 208 669.5 222.5Q681 237 699 238Q714 238 722.5 228.0Q731 218 731 195Q730 138 693.5 89.0Q657 40 592.0 9.5Q527 -21 444 -21Q316 -21 243.5 43.5Q171 108 171 238V790Q171 816 160.5 828.5Q150 841 126 849ZM341 848V947H672Q695 947 708.5 937.5Q722 928 722 910Q722 884 696.0 866.0Q670 848 612 848Z" fill="#1F1B1A"/></g>
<g transform="translate(563.05,809.45) scale(0.20429,-0.20429)"><path d="M509 66Q578 66 615.5 100.5Q653 135 653 187Q653 220 638.5 247.0Q624 274 582.5 296.0Q541 318 462 337Q308 368 223.5 416.0Q139 464 106.5 527.5Q74 591 74 667Q74 806 172.5 888.0Q271 970 457 970Q524 970 566.5 959.0Q609 948 636.0 936.5Q663 925 684 925Q706 925 717.5 936.5Q729 948 740.5 959.0Q752 970 773 970Q788 970 800.0 960.5Q812 951 820 924L886 723Q898 688 893.5 666.0Q889 644 866 635Q843 626 826.5 634.5Q810 643 794 666Q750 745 698.5 791.5Q647 838 590.5 858.5Q534 879 473 879Q388 879 345.0 844.5Q302 810 302 751Q302 716 320.0 688.0Q338 660 387.5 636.5Q437 613 529 591Q660 563 736.0 518.5Q812 474 845.5 411.5Q879 349 879 265Q879 179 834.5 113.5Q790 48 710.5 11.5Q631 -25 527 -25Q461 -25 421.5 -12.0Q382 1 356.5 13.5Q331 26 307 26Q285 26 270.5 13.5Q256 1 243.0 -12.0Q230 -25 211 -25Q196 -25 185.5 -14.0Q175 -3 170 23L131 214Q124 254 128.5 273.5Q133 293 154 301Q176 310 193.0 299.5Q210 289 227 261Q289 156 361.5 111.0Q434 66 509 66Z" fill="#1F1B1A"/></g>
</svg>
