<svg xmlns="http://www.w3.org/2000/svg" width="1024" height="1024" viewBox="0 0 1024 1024">

  <defs>
    <linearGradient id="base" x1="0" y1="0" x2="1" y2="1">
      <stop offset="0"    stop-color="#F3E5DC"/>
      <stop offset="0.5"  stop-color="#F2C9A8"/>
      <stop offset="1"    stop-color="#E59BB0"/>
    </linearGradient>
    <radialGradient id="glow" cx="0.28" cy="0.24" r="0.7">
      <stop offset="0" stop-color="#FBEFE3" stop-opacity="0.9"/>
      <stop offset="1" stop-color="#FBEFE3" stop-opacity="0"/>
    </radialGradient>
  </defs>
  <rect width="1024" height="1024" fill="url(#base)"/>
  <rect width="1024" height="1024" fill="url(#glow)"/>
<g transform="translate(230.07,480.00) scale(0.21429,-0.21429)"><path d="M1238 337Q1238 187 1113.5 93.5Q989 0 749 0H78Q73 0 70.5 2.0Q68 4 68 6Q68 12 80 14L161 26Q182 30 191.0 39.0Q200 48 200 67V1346Q200 1358 192.5 1364.0Q185 1370 161 1374L80 1386Q68 1388 68 1394Q68 1396 70.5 1398.0Q73 1400 78 1400H566Q757 1400 889.5 1349.5Q1022 1299 1090.0 1210.0Q1158 1121 1158 1004Q1158 906 1104.5 829.5Q1051 753 950.5 709.5Q850 666 710 666L753 672Q896 672 1005.5 628.5Q1115 585 1176.5 509.5Q1238 434 1238 337ZM642 656H448V676H655Q740 676 797.0 712.0Q854 748 882.5 818.0Q911 888 911 988Q911 1106 865.5 1194.5Q820 1283 741.0 1332.0Q662 1381 561 1381H474V60Q474 38 488.5 28.5Q503 19 529 19H680Q768 19 832.0 59.5Q896 100 930.0 172.5Q964 245 964 341Q964 486 881.5 571.0Q799 656 642 656Z" fill="#1F1B1A"/></g>
<g transform="translate(520.64,480.00) scale(0.21429,-0.21429)"><path d="M181 1400H1055Q1076 1400 1094.0 1406.5Q1112 1413 1125.5 1420.0Q1139 1427 1143 1427Q1146 1427 1148.0 1424.0Q1150 1421 1152 1406L1215 1022Q1217 1015 1216.0 1011.5Q1215 1008 1212 1006Q1209 1006 1206.0 1008.0Q1203 1010 1200 1014Q1135 1172 1081.0 1250.5Q1027 1329 978.5 1355.5Q930 1382 882 1382H762V54Q762 42 772.0 36.0Q782 30 801 26L882 14Q894 12 894 6Q894 0 884 0H360Q355 0 352.5 2.0Q350 4 350 6Q350 12 362 14L443 26Q463 30 472.5 36.0Q482 42 482 54V1382H362Q315 1382 267.0 1352.5Q219 1323 164.5 1243.5Q110 1164 44 1014Q41 1010 38.0 1008.0Q35 1006 32 1006Q29 1008 28.5 1011.5Q28 1015 29 1022L92 1406Q94 1421 96.5 1424.0Q99 1427 101 1427Q105 1427 116.0 1420.0Q127 1413 144.0 1406.5Q161 1400 181 1400Z" fill="#1F1B1A"/></g>
<g transform="translate(236.64,844.00) scale(0.21429,-0.21429)"><path d="M181 1400H1055Q1076 1400 1094.0 1406.5Q1112 1413 1125.5 1420.0Q1139 1427 1143 1427Q1146 1427 1148.0 1424.0Q1150 1421 1152 1406L1215 1022Q1217 1015 1216.0 1011.5Q1215 1008 1212 1006Q1209 1006 1206.0 1008.0Q1203 1010 1200 1014Q1135 1172 1081.0 1250.5Q1027 1329 978.5 1355.5Q930 1382 882 1382H762V54Q762 42 772.0 36.0Q782 30 801 26L882 14Q894 12 894 6Q894 0 884 0H360Q355 0 352.5 2.0Q350 4 350 6Q350 12 362 14L443 26Q463 30 472.5 36.0Q482 42 482 54V1382H362Q315 1382 267.0 1352.5Q219 1323 164.5 1243.5Q110 1164 44 1014Q41 1010 38.0 1008.0Q35 1006 32 1006Q29 1008 28.5 1011.5Q28 1015 29 1022L92 1406Q94 1421 96.5 1424.0Q99 1427 101 1427Q105 1427 116.0 1420.0Q127 1413 144.0 1406.5Q161 1400 181 1400Z" fill="#1F1B1A"/></g>
<g transform="translate(531.79,844.00) scale(0.21429,-0.21429)"><path d="M608 -21Q515 -21 455.5 6.0Q396 33 363.0 59.5Q330 86 318 86Q311 86 295.5 69.5Q280 53 262.0 31.0Q244 9 228.5 -8.0Q213 -25 204 -25Q198 -25 192.0 -20.0Q186 -15 184 -8L108 423Q107 429 107.5 432.5Q108 436 110 437Q113 439 116.5 437.0Q120 435 122 431Q206 260 284.5 166.0Q363 72 438.0 35.0Q513 -2 586 -2Q695 -2 759.5 57.5Q824 117 824 232Q824 302 795.0 361.0Q766 420 696.5 470.5Q627 521 507 564Q349 620 255.0 687.5Q161 755 119.0 836.5Q77 918 77 1020Q77 1139 137.5 1229.0Q198 1319 303.0 1369.5Q408 1420 543 1420Q627 1420 682.0 1399.5Q737 1379 769.0 1358.5Q801 1338 816 1338Q829 1338 855.5 1359.5Q882 1381 907.0 1402.5Q932 1424 942 1424Q947 1424 951.0 1421.0Q955 1418 957 1411L1063 982Q1064 976 1063.5 973.0Q1063 970 1061 968Q1059 967 1055.5 968.5Q1052 970 1049 974Q959 1142 878.0 1234.5Q797 1327 719.0 1364.0Q641 1401 560 1401Q456 1401 388.5 1333.5Q321 1266 321 1148Q321 1075 348.5 1014.0Q376 953 442.5 902.5Q509 852 624 809Q789 750 883.5 683.0Q978 616 1018.0 538.0Q1058 460 1058 366Q1058 258 1004.5 170.5Q951 83 850.5 31.0Q750 -21 608 -21Z" fill="#1F1B1A"/></g>
</svg>
