<svg xmlns="http://www.w3.org/2000/svg" width="1024" height="1024" viewBox="0 0 1024 1024">
<defs><linearGradient id="base" gradientTransform="rotate(125 0.5 0.5)"><stop offset="0" stop-color="#B4006E"/><stop offset="1" stop-color="#2B34C8"/></linearGradient><radialGradient id="m0" cx="184" cy="860" r="922" gradientUnits="userSpaceOnUse"><stop offset="0" stop-color="#E60A93" stop-opacity="1.00"/><stop offset="0.62" stop-color="#E60A93" stop-opacity="0.55"/><stop offset="1" stop-color="#E60A93" stop-opacity="0"/></radialGradient><radialGradient id="m1" cx="881" cy="225" r="860" gradientUnits="userSpaceOnUse"><stop offset="0" stop-color="#B14BFF" stop-opacity="1.00"/><stop offset="0.62" stop-color="#B14BFF" stop-opacity="0.55"/><stop offset="1" stop-color="#B14BFF" stop-opacity="0"/></radialGradient><radialGradient id="m2" cx="860" cy="881" r="758" gradientUnits="userSpaceOnUse"><stop offset="0" stop-color="#3A46E6" stop-opacity="0.95"/><stop offset="0.62" stop-color="#3A46E6" stop-opacity="0.52"/><stop offset="1" stop-color="#3A46E6" stop-opacity="0"/></radialGradient><radialGradient id="m3" cx="307" cy="205" r="512" gradientUnits="userSpaceOnUse"><stop offset="0" stop-color="#B4006E" stop-opacity="0.55"/><stop offset="0.62" stop-color="#B4006E" stop-opacity="0.30"/><stop offset="1" stop-color="#B4006E" stop-opacity="0"/></radialGradient><radialGradient id="rib" cx="594" cy="225" r="532" gradientUnits="userSpaceOnUse"><stop offset="0" stop-color="#F4D8FF" stop-opacity="0.22"/><stop offset="1" stop-color="#F4D8FF" stop-opacity="0"/></radialGradient></defs><rect width="1024" height="1024" fill="url(#base)"/><rect width="1024" height="1024" fill="url(#m0)"/><rect width="1024" height="1024" fill="url(#m1)"/><rect width="1024" height="1024" fill="url(#m2)"/><rect width="1024" height="1024" fill="url(#m3)"/><rect width="1024" height="1024" fill="url(#rib)"/>
<g transform="translate(213.45,474.40) scale(0.20143,-0.20143)"><path d="M1371 337Q1371 188 1242.5 94.0Q1114 0 857 0H164Q133 0 118.5 12.5Q104 25 104 46Q104 84 146 97L203 110Q228 117 240.5 131.0Q253 145 253 167V1233Q253 1255 240.5 1269.0Q228 1283 203 1290L146 1303Q104 1316 104 1354Q104 1376 118.5 1388.0Q133 1400 164 1400H704Q890 1400 1021.5 1349.0Q1153 1298 1222.0 1207.5Q1291 1117 1291 996Q1291 895 1234.5 816.0Q1178 737 1067.0 691.5Q956 646 793 646L849 677Q1008 677 1125.0 633.5Q1242 590 1306.5 513.5Q1371 437 1371 337ZM743 609H476V690H718Q807 690 869.0 723.5Q931 757 963.0 822.0Q995 887 995 980Q995 1079 955.5 1152.5Q916 1226 840.0 1267.0Q764 1308 654 1308H563V189Q563 140 593.5 116.0Q624 92 683 92H789Q878 92 938.5 123.0Q999 154 1030.0 211.5Q1061 269 1061 345Q1061 465 979.5 537.0Q898 609 743 609Z" fill="#1F1B1A"/></g>
<g transform="translate(521.35,474.40) scale(0.20143,-0.20143)"><path d="M346 1400H1050Q1087 1400 1111.0 1409.5Q1135 1419 1153.5 1428.0Q1172 1437 1194 1437Q1227 1437 1244.0 1421.0Q1261 1405 1271 1367L1338 1044Q1344 1016 1334.0 998.0Q1324 980 1300 975Q1277 971 1259.5 979.5Q1242 988 1230 1013Q1178 1130 1140.5 1190.5Q1103 1251 1065.5 1273.0Q1028 1295 975 1295H853V167Q853 145 866.0 131.0Q879 117 903 110L960 97Q1002 84 1002 46Q1002 0 941 0H454Q424 0 409.0 12.5Q394 25 394 46Q394 84 436 97L493 110Q518 117 530.5 131.0Q543 145 543 167V1295H421Q369 1295 331.0 1273.0Q293 1251 255.5 1190.5Q218 1130 166 1013Q154 988 136.5 979.5Q119 971 96 975Q72 980 62.5 998.0Q53 1016 58 1044L125 1367Q135 1405 152.0 1421.0Q169 1437 202 1437Q224 1437 242.5 1428.0Q261 1419 285.0 1409.5Q309 1400 346 1400Z" fill="#1F1B1A"/></g>
<g transform="translate(221.35,820.40) scale(0.20143,-0.20143)"><path d="M346 1400H1050Q1087 1400 1111.0 1409.5Q1135 1419 1153.5 1428.0Q1172 1437 1194 1437Q1227 1437 1244.0 1421.0Q1261 1405 1271 1367L1338 1044Q1344 1016 1334.0 998.0Q1324 980 1300 975Q1277 971 1259.5 979.5Q1242 988 1230 1013Q1178 1130 1140.5 1190.5Q1103 1251 1065.5 1273.0Q1028 1295 975 1295H853V167Q853 145 866.0 131.0Q879 117 903 110L960 97Q1002 84 1002 46Q1002 0 941 0H454Q424 0 409.0 12.5Q394 25 394 46Q394 84 436 97L493 110Q518 117 530.5 131.0Q543 145 543 167V1295H421Q369 1295 331.0 1273.0Q293 1251 255.5 1190.5Q218 1130 166 1013Q154 988 136.5 979.5Q119 971 96 975Q72 980 62.5 998.0Q53 1016 58 1044L125 1367Q135 1405 152.0 1421.0Q169 1437 202 1437Q224 1437 242.5 1428.0Q261 1419 285.0 1409.5Q309 1400 346 1400Z" fill="#1F1B1A"/></g>
<g transform="translate(538.86,820.40) scale(0.20143,-0.20143)"><path d="M661 -31Q579 -31 520.0 -11.5Q461 8 423.5 27.0Q386 46 368 46Q348 46 335.0 34.0Q322 22 310.5 6.5Q299 -9 286.0 -21.0Q273 -33 254 -33Q233 -33 219.5 -20.5Q206 -8 201 21L132 347Q128 369 137.5 385.0Q147 401 169 408Q193 416 211.0 407.0Q229 398 242 372Q299 260 363.5 194.0Q428 128 498.0 100.0Q568 72 641 72Q743 72 802.0 125.0Q861 178 861 267Q862 325 835.0 371.5Q808 418 733.0 462.0Q658 506 511 554Q359 603 267.5 667.5Q176 732 135.0 818.0Q94 904 94 1018Q94 1139 151.5 1231.0Q209 1323 313.5 1374.5Q418 1426 558 1426Q648 1426 707.0 1407.5Q766 1389 804.0 1370.0Q842 1351 867 1351Q889 1351 901.0 1370.5Q913 1390 927.0 1409.5Q941 1429 969 1429Q991 1429 1005.5 1415.0Q1020 1401 1031 1363L1125 1035Q1133 1009 1123.5 988.5Q1114 968 1091 961Q1068 953 1049.5 962.5Q1031 972 1019 995Q957 1119 886.5 1190.5Q816 1262 741.0 1293.0Q666 1324 589 1324Q487 1324 426.5 1265.5Q366 1207 366 1113Q366 1056 392.5 1007.0Q419 958 493.0 911.5Q567 865 707 813Q862 758 953.5 694.0Q1045 630 1084.5 549.5Q1124 469 1124 365Q1124 256 1069.0 166.0Q1014 76 911.0 22.5Q808 -31 661 -31Z" fill="#1F1B1A"/></g>
</svg>
