<svg xmlns="http://www.w3.org/2000/svg" viewBox="0 0 100 100" fill="none" stroke="white" stroke-width="2.5" stroke-linecap="round" stroke-linejoin="round">
  <!-- Orea V4 Apex (Conical) — outer rim + 8 inward-pointing triangular teeth + open center -->
  <circle cx="50" cy="50" r="42" />
  <g transform="rotate(0 50 50)"><polygon points="84,46 84,54 70,50" /></g>
  <g transform="rotate(45 50 50)"><polygon points="84,46 84,54 70,50" /></g>
  <g transform="rotate(90 50 50)"><polygon points="84,46 84,54 70,50" /></g>
  <g transform="rotate(135 50 50)"><polygon points="84,46 84,54 70,50" /></g>
  <g transform="rotate(180 50 50)"><polygon points="84,46 84,54 70,50" /></g>
  <g transform="rotate(225 50 50)"><polygon points="84,46 84,54 70,50" /></g>
  <g transform="rotate(270 50 50)"><polygon points="84,46 84,54 70,50" /></g>
  <g transform="rotate(315 50 50)"><polygon points="84,46 84,54 70,50" /></g>
</svg>
